<svg width="495" height="732" viewBox="0 0 495 732" xmlns="http://www.w3.org/2000/svg">
  <defs>
    
<style>
    @import url('https://fonts.googleapis.com/css2?family=Inter:wght@400;500;600;700&amp;display=swap');
    .bg { fill: #161B22; }
    .border { fill: none; stroke: #30363D; stroke-width: 1; }
    .title { fill: #C9D1D9; font-size: 18px; font-weight: 700; font-family: 'Inter', sans-serif; }
    .username { fill: #8B949E; font-size: 12px; font-weight: 500; font-family: 'Inter', sans-serif; }
    .stat-label { fill: #8B949E; font-size: 10px; font-weight: 500; font-family: 'Inter', sans-serif; text-transform: uppercase; letter-spacing: 0.5px; }
    .stat-value { fill: #58A6FF; font-size: 24px; font-weight: 700; font-family: 'Inter', sans-serif; }
    .footer { fill: #8B949E; font-size: 9px; font-family: 'Inter', sans-serif; }
    .icon-circle { fill: url(#grad1); opacity: 0.08; }
    .divider { stroke: #30363D; stroke-width: 1; opacity: 0.5; }

    .repo-name { fill: #58A6FF; font-size: 14px; font-weight: 600; font-family: 'Inter', sans-serif; }
    .repo-desc { fill: #8B949E; font-size: 10px; font-family: 'Inter', sans-serif; }
    .repo-lang { fill: #C9D1D9; font-size: 10px; font-family: 'Inter', sans-serif; }
    .repo-stat { fill: #8B949E; font-size: 10px; font-family: 'Inter', sans-serif; }

    .subtitle { fill: #8B949E; font-size: 11px; font-weight: 500; font-family: 'Inter', sans-serif; }
    .day-label { fill: #8B949E; font-size: 9px; font-weight: 600; font-family: 'Inter', sans-serif; }
    .count { fill: #58A6FF; font-size: 10px; font-weight: 700; font-family: 'Inter', sans-serif; }
    .baseline { stroke: #30363D; stroke-width: 1; opacity: 0.3; stroke-dasharray: 4,4; }

    .emoji { font-size: 16px; }
    .time-count { fill: #58A6FF; font-size: 13px; font-weight: 700; font-family: 'Inter', sans-serif; }
    .time-label { fill: #8B949E; font-size: 8px; font-family: 'Inter', sans-serif; }
</style>

    
<linearGradient id="grad1" x1="0%" y1="0%" x2="100%" y2="100%">
    <stop offset="0%" style="stop-color:#7C3AED;stop-opacity:1" />
    <stop offset="100%" style="stop-color:#2563EB;stop-opacity:1" />
</linearGradient>
<linearGradient id="areaGrad0" x1="0%" y1="0%" x2="0%" y2="100%"><stop offset="0%" style="stop-color:#3572A5;stop-opacity:0.35" /><stop offset="100%" style="stop-color:#3572A5;stop-opacity:0.03" /></linearGradient><linearGradient id="areaGrad1" x1="0%" y1="0%" x2="0%" y2="100%"><stop offset="0%" style="stop-color:#3572A5;stop-opacity:0.35" /><stop offset="100%" style="stop-color:#3572A5;stop-opacity:0.03" /></linearGradient><linearGradient id="areaGrad2" x1="0%" y1="0%" x2="0%" y2="100%"><stop offset="0%" style="stop-color:#1F6FEB;stop-opacity:0.35" /><stop offset="100%" style="stop-color:#1F6FEB;stop-opacity:0.03" /></linearGradient>
  </defs>

  <g transform="translate(0, 0)">
    
  <rect class="bg" x="0" y="0" width="495" height="140" rx="10"/>
  <rect x="0" y="0" width="495" height="140" rx="10" class="border"/>

  <circle class="icon-circle" cx="430" cy="30" r="50"/>

  <text x="18" y="30" class="title">📊 GitHub Stats</text>
  <text x="18" y="46" class="username">@jjurzak</text>

  <line x1="165" y1="65" x2="165" y2="110" class="divider"/>
  <line x1="330" y1="65" x2="330" y2="110" class="divider"/>

  <g>
    <text x="82" y="92" text-anchor="middle" class="stat-value">14</text>
    <text x="82" y="107" text-anchor="middle" class="stat-label">Repositories</text>

    <text x="247" y="92" text-anchor="middle" class="stat-value">0</text>
    <text x="247" y="107" text-anchor="middle" class="stat-label">Followers</text>

    <text x="412" y="92" text-anchor="middle" class="stat-value">62</text>
    <text x="412" y="107" text-anchor="middle" class="stat-label">Events (30d)</text>
  </g>
  <text x="18" y="130" class="footer">↻ Updated Jan 16, 2026</text>

  </g>

  <g transform="translate(0, 152)">
    
  <rect x="0" y="0" width="495" height="256" rx="10" class="bg"/>
  <rect x="0" y="0" width="495" height="256" rx="10" class="border"/>
  <text x="18" y="30" class="title">🚀 My Contributions (6 months)</text>
  
        <g>
            <text x="18" y="60" class="repo-name">NoD2</text>
            <text x="18" y="74" class="repo-desc">No description</text>
            <circle cx="21" cy="82" r="3.5" fill="#3572A5"/>
            <text x="29" y="85" class="repo-lang">Python</text>
            <text x="90" y="85" class="repo-stat">📝 21 commits</text>
            <path d="M 265,84 L 265.0,84.0 L 272.6,84.0 L 280.2,84.0 L 287.8,84.0 L 295.4,84.0 L 303.0,84.0 L 310.6,84.0 L 318.2,84.0 L 325.8,84.0 L 333.4,84.0 L 341.0,84.0 L 348.6,84.0 L 356.2,84.0 L 363.8,84.0 L 371.4,75.6 L 379.0,78.4 L 386.6,84.0 L 394.20000000000005,72.8 L 401.79999999999995,67.2 L 409.4,84.0 L 417.0,81.2 L 424.6,70.0 L 432.2,84.0 L 439.8,84.0 L 447.4,84.0 L 455.0,84.0 L 455,84 Z" fill="url(#areaGrad0)"/>
            <polyline points="265.0,84.0 272.6,84.0 280.2,84.0 287.8,84.0 295.4,84.0 303.0,84.0 310.6,84.0 318.2,84.0 325.8,84.0 333.4,84.0 341.0,84.0 348.6,84.0 356.2,84.0 363.8,84.0 371.4,75.6 379.0,78.4 386.6,84.0 394.20000000000005,72.8 401.79999999999995,67.2 409.4,84.0 417.0,81.2 424.6,70.0 432.2,84.0 439.8,84.0 447.4,84.0 455.0,84.0" fill="none" stroke="#3572A5" stroke-width="1.5" stroke-linecap="round" stroke-linejoin="round"/>
        </g>
        
        <g>
            <text x="18" y="122" class="repo-name">Blockchain</text>
            <text x="18" y="136" class="repo-desc">No description</text>
            <circle cx="21" cy="144" r="3.5" fill="#3572A5"/>
            <text x="29" y="147" class="repo-lang">Python</text>
            <text x="90" y="147" class="repo-stat">📝 8 commits</text>
            <path d="M 265,146 L 265.0,146.0 L 272.6,146.0 L 280.2,146.0 L 287.8,146.0 L 295.4,146.0 L 303.0,146.0 L 310.6,146.0 L 318.2,146.0 L 325.8,146.0 L 333.4,146.0 L 341.0,146.0 L 348.6,146.0 L 356.2,146.0 L 363.8,146.0 L 371.4,146.0 L 379.0,146.0 L 386.6,146.0 L 394.20000000000005,146.0 L 401.79999999999995,143.2 L 409.4,146.0 L 417.0,146.0 L 424.6,146.0 L 432.2,143.2 L 439.8,146.0 L 447.4,129.2 L 455.0,146.0 L 455,146 Z" fill="url(#areaGrad1)"/>
            <polyline points="265.0,146.0 272.6,146.0 280.2,146.0 287.8,146.0 295.4,146.0 303.0,146.0 310.6,146.0 318.2,146.0 325.8,146.0 333.4,146.0 341.0,146.0 348.6,146.0 356.2,146.0 363.8,146.0 371.4,146.0 379.0,146.0 386.6,146.0 394.20000000000005,146.0 401.79999999999995,143.2 409.4,146.0 417.0,146.0 424.6,146.0 432.2,143.2 439.8,146.0 447.4,129.2 455.0,146.0" fill="none" stroke="#3572A5" stroke-width="1.5" stroke-linecap="round" stroke-linejoin="round"/>
        </g>
        
        <g>
            <text x="18" y="184" class="repo-name">IRHAS</text>
            <text x="18" y="198" class="repo-desc">Intelligent road hazard analy...</text>
            <circle cx="21" cy="206" r="3.5" fill="#1F6FEB"/>
            <text x="29" y="209" class="repo-lang">None</text>
            <text x="90" y="209" class="repo-stat">📝 5 commits</text>
            <path d="M 265,208 L 265.0,208.0 L 272.6,208.0 L 280.2,208.0 L 287.8,208.0 L 295.4,208.0 L 303.0,208.0 L 310.6,208.0 L 318.2,208.0 L 325.8,208.0 L 333.4,208.0 L 341.0,208.0 L 348.6,208.0 L 356.2,208.0 L 363.8,208.0 L 371.4,208.0 L 379.0,208.0 L 386.6,208.0 L 394.20000000000005,203.8 L 401.79999999999995,208.0 L 409.4,208.0 L 417.0,208.0 L 424.6,208.0 L 432.2,208.0 L 439.8,208.0 L 447.4,191.2 L 455.0,208.0 L 455,208 Z" fill="url(#areaGrad2)"/>
            <polyline points="265.0,208.0 272.6,208.0 280.2,208.0 287.8,208.0 295.4,208.0 303.0,208.0 310.6,208.0 318.2,208.0 325.8,208.0 333.4,208.0 341.0,208.0 348.6,208.0 356.2,208.0 363.8,208.0 371.4,208.0 379.0,208.0 386.6,208.0 394.20000000000005,203.8 401.79999999999995,208.0 409.4,208.0 417.0,208.0 424.6,208.0 432.2,208.0 439.8,208.0 447.4,191.2 455.0,208.0" fill="none" stroke="#1F6FEB" stroke-width="1.5" stroke-linecap="round" stroke-linejoin="round"/>
        </g>
        

  </g>

  <g transform="translate(0, 420)">
    
  <rect x="0" y="0" width="495" height="150" rx="10" class="bg"/>
  <rect x="0" y="0" width="495" height="150" rx="10" class="border"/>
  <text x="18" y="30" class="title">📈 Weekly Activity</text>
  <text x="18" y="46" class="subtitle">Last 7 days</text>
  <line x1="32" y1="105" x2="465" y2="105" class="baseline"/>
  
    <g>
      <rect x="32" y="105" width="40" height="0" rx="4" fill="#0D1117" opacity="0.3">
        <animate attributeName="height" from="0" to="0" dur="0.6s" begin="0.0s" fill="freeze"/>
        <animate attributeName="y" from="105" to="105" dur="0.6s" begin="0.0s" fill="freeze"/>
      </rect>
      
      <text x="52" y="119" text-anchor="middle" class="day-label">Mon</text>
    </g>
    
    <g>
      <rect x="94" y="105" width="40" height="0" rx="4" fill="#0D1117" opacity="0.3">
        <animate attributeName="height" from="0" to="0" dur="0.6s" begin="0.1s" fill="freeze"/>
        <animate attributeName="y" from="105" to="105" dur="0.6s" begin="0.1s" fill="freeze"/>
      </rect>
      
      <text x="114" y="119" text-anchor="middle" class="day-label">Tue</text>
    </g>
    
    <g>
      <rect x="156" y="105" width="40" height="0" rx="4" fill="#0D1117" opacity="0.3">
        <animate attributeName="height" from="0" to="0" dur="0.6s" begin="0.2s" fill="freeze"/>
        <animate attributeName="y" from="105" to="105" dur="0.6s" begin="0.2s" fill="freeze"/>
      </rect>
      
      <text x="176" y="119" text-anchor="middle" class="day-label">Wed</text>
    </g>
    
    <g>
      <rect x="218" y="105" width="40" height="0" rx="4" fill="#0D1117" opacity="0.3">
        <animate attributeName="height" from="0" to="0" dur="0.6s" begin="0.30000000000000004s" fill="freeze"/>
        <animate attributeName="y" from="105" to="105" dur="0.6s" begin="0.30000000000000004s" fill="freeze"/>
      </rect>
      
      <text x="238" y="119" text-anchor="middle" class="day-label">Thu</text>
    </g>
    
    <g>
      <rect x="280" y="50.0" width="40" height="55.0" rx="4" fill="#39D353" opacity="1.0">
        <animate attributeName="height" from="0" to="55.0" dur="0.6s" begin="0.4s" fill="freeze"/>
        <animate attributeName="y" from="105" to="50.0" dur="0.6s" begin="0.4s" fill="freeze"/>
      </rect>
      <text x="300" y="45.0" text-anchor="middle" class="count">1</text>
      <text x="300" y="119" text-anchor="middle" class="day-label">Fri</text>
    </g>
    
    <g>
      <rect x="342" y="105" width="40" height="0" rx="4" fill="#0D1117" opacity="0.3">
        <animate attributeName="height" from="0" to="0" dur="0.6s" begin="0.5s" fill="freeze"/>
        <animate attributeName="y" from="105" to="105" dur="0.6s" begin="0.5s" fill="freeze"/>
      </rect>
      
      <text x="362" y="119" text-anchor="middle" class="day-label">Sat</text>
    </g>
    
    <g>
      <rect x="404" y="105" width="40" height="0" rx="4" fill="#0D1117" opacity="0.3">
        <animate attributeName="height" from="0" to="0" dur="0.6s" begin="0.6000000000000001s" fill="freeze"/>
        <animate attributeName="y" from="105" to="105" dur="0.6s" begin="0.6000000000000001s" fill="freeze"/>
      </rect>
      
      <text x="424" y="119" text-anchor="middle" class="day-label">Sun</text>
    </g>
    

  </g>

  <g transform="translate(0, 582)">
    
  <rect x="0" y="0" width="495" height="150" rx="10" class="bg"/>
  <rect x="0" y="0" width="495" height="150" rx="10" class="border"/>
  <text x="18" y="30" class="title">⏰ When I Code</text>
  <text x="18" y="46" class="subtitle">Last 30 days activity</text>
  
    <g>
      <rect x="22" y="60" width="62" height="58" rx="7" fill="#39D353" opacity="1.0"/>
      <text x="53" y="78" text-anchor="middle" class="emoji">🔥</text>
      <text x="53" y="94" text-anchor="middle" class="time-count">47</text>
      <text x="53" y="128" text-anchor="middle" class="time-label">Night</text>
      <text x="53" y="137" text-anchor="middle" class="time-label">(00-04)</text>
    </g>
    
    <g>
      <rect x="97" y="60" width="62" height="58" rx="7" fill="#006D32" opacity="0.3446808510638298"/>
      <text x="128" y="78" text-anchor="middle" class="emoji">✨</text>
      <text x="128" y="94" text-anchor="middle" class="time-count">3</text>
      <text x="128" y="128" text-anchor="middle" class="time-label">Dawn</text>
      <text x="128" y="137" text-anchor="middle" class="time-label">(04-08)</text>
    </g>
    
    <g>
      <rect x="172" y="60" width="62" height="58" rx="7" fill="#0D1117" opacity="0.3"/>
      <text x="203" y="78" text-anchor="middle" class="emoji">💤</text>
      <text x="203" y="94" text-anchor="middle" class="time-count">0</text>
      <text x="203" y="128" text-anchor="middle" class="time-label">Morning</text>
      <text x="203" y="137" text-anchor="middle" class="time-label">(08-12)</text>
    </g>
    
    <g>
      <rect x="247" y="60" width="62" height="58" rx="7" fill="#006D32" opacity="0.3148936170212766"/>
      <text x="278" y="78" text-anchor="middle" class="emoji">✨</text>
      <text x="278" y="94" text-anchor="middle" class="time-count">1</text>
      <text x="278" y="128" text-anchor="middle" class="time-label">Afternoon</text>
      <text x="278" y="137" text-anchor="middle" class="time-label">(12-16)</text>
    </g>
    
    <g>
      <rect x="322" y="60" width="62" height="58" rx="7" fill="#006D32" opacity="0.3148936170212766"/>
      <text x="353" y="78" text-anchor="middle" class="emoji">✨</text>
      <text x="353" y="94" text-anchor="middle" class="time-count">1</text>
      <text x="353" y="128" text-anchor="middle" class="time-label">Evening</text>
      <text x="353" y="137" text-anchor="middle" class="time-label">(16-20)</text>
    </g>
    
    <g>
      <rect x="397" y="60" width="62" height="58" rx="7" fill="#006D32" opacity="0.44893617021276594"/>
      <text x="428" y="78" text-anchor="middle" class="emoji">✨</text>
      <text x="428" y="94" text-anchor="middle" class="time-count">10</text>
      <text x="428" y="128" text-anchor="middle" class="time-label">Night</text>
      <text x="428" y="137" text-anchor="middle" class="time-label">(20-24)</text>
    </g>
    

  </g>
</svg>