<svg width="480" height="308" viewBox="0 0 480 308" xmlns="http://www.w3.org/2000/svg">
  <defs>
    <style>
      .bg { fill: #0D1117; }
      .border { fill: none; stroke: #30363D; stroke-width: 1.5; }
      .title { fill: #58A6FF; font-size: 20px; font-weight: 700; font-family: 'Segoe UI', sans-serif; }
      .lang-name { fill: #58A6FF; font-size: 14px; font-weight: 600; font-family: 'Monaco', monospace; }
      .lang-size { fill: #6E7681; font-size: 12px; font-family: 'Monaco', monospace; }
    </style>
  </defs>

  <!-- Card background -->
  <rect x="0" y="0" width="480" height="308" rx="12" class="bg"/>
  <rect x="0" y="0" width="480" height="308" rx="12" class="border"/>

  <!-- Header -->
  <text x="20" y="35" class="title">💻 Top Languages</text>

  <!-- Language bars -->
  
    <!-- Jupyter Notebook -->
    <text x="20" y="65" class="lang-name">Jupyter Notebook</text>
    <text x="20" y="85" class="lang-size">7654 KB</text>

    <!-- Progress bar -->
    <rect x="140" y="52" width="340" height="6" rx="3" fill="#161B22"/>
    <rect x="140" y="52" width="340.0" height="6" rx="3" fill="#1F6FEB"/>
  

    <!-- Python -->
    <text x="20" y="103" class="lang-name">Python</text>
    <text x="20" y="123" class="lang-size">77 KB</text>

    <!-- Progress bar -->
    <rect x="140" y="90" width="340" height="6" rx="3" fill="#161B22"/>
    <rect x="140" y="90" width="3.421128650383367" height="6" rx="3" fill="#1F6FEB"/>
  

    <!-- C# -->
    <text x="20" y="141" class="lang-name">C#</text>
    <text x="20" y="161" class="lang-size">57 KB</text>

    <!-- Progress bar -->
    <rect x="140" y="128" width="340" height="6" rx="3" fill="#161B22"/>
    <rect x="140" y="128" width="2.552148698368693" height="6" rx="3" fill="#1F6FEB"/>
  

    <!-- JavaScript -->
    <text x="20" y="179" class="lang-name">JavaScript</text>
    <text x="20" y="199" class="lang-size">8 KB</text>

    <!-- Progress bar -->
    <rect x="140" y="166" width="340" height="6" rx="3" fill="#161B22"/>
    <rect x="140" y="166" width="0.3464033206947818" height="6" rx="3" fill="#1F6FEB"/>
  

    <!-- CSS -->
    <text x="20" y="217" class="lang-name">CSS</text>
    <text x="20" y="237" class="lang-size">2 KB</text>

    <!-- Progress bar -->
    <rect x="140" y="204" width="340" height="6" rx="3" fill="#161B22"/>
    <rect x="140" y="204" width="0.07674232615016517" height="6" rx="3" fill="#1F6FEB"/>
  

    <!-- Answer Set Programming -->
    <text x="20" y="255" class="lang-name">Answer Set Programming</text>
    <text x="20" y="275" class="lang-size">1 KB</text>

    <!-- Progress bar -->
    <rect x="140" y="242" width="340" height="6" rx="3" fill="#161B22"/>
    <rect x="140" y="242" width="0.02585552650395616" height="6" rx="3" fill="#1F6FEB"/>
  
</svg>