<svg width="495" height="340" viewBox="0 0 495 340" xmlns="http://www.w3.org/2000/svg">
  <defs>
    <style>
      @import url('https://fonts.googleapis.com/css2?family=Inter:wght@400;500;600;700&amp;display=swap');
      
      .bg { fill: #161B22; }
      .border { fill: none; stroke: #30363D; stroke-width: 1; }
      .title { fill: #C9D1D9; font-size: 22px; font-weight: 700; font-family: 'Inter', sans-serif; }
      .repo-name { fill: #58A6FF; font-size: 16px; font-weight: 600; font-family: 'Inter', monospace; }
      .repo-desc { fill: #8B949E; font-size: 12px; font-family: 'Inter', sans-serif; }
      .repo-lang { fill: #C9D1D9; font-size: 12px; font-family: 'Inter', sans-serif; }
      .repo-stat { fill: #8B949E; font-size: 11px; font-family: 'Inter', monospace; }
    </style>
  </defs>

  <!-- Card background -->
  <rect x="0" y="0" width="495" height="340" rx="10" class="bg"/>
  <rect x="0" y="0" width="495" height="340" rx="10" class="border"/>

  <!-- Header -->
  <text x="24" y="38" class="title">🚀 My Contributions</text>

  <!-- Repos -->
  
    <!-- NoD2 -->
    <g opacity="0.95">
      <text x="24" y="75" class="repo-name">NoD2</text>
      <text x="24" y="93" class="repo-desc">No description</text>
      
      <g transform="translate(24, 103)">
        <circle cx="5" cy="0" r="5" fill="#3572A5"/>
        <text x="15" y="4" class="repo-lang">Python</text>
        <text x="100" y="4" class="repo-stat">📝 21 commits</text>
      </g>
      
      <!-- EKG Chart -->
      <g opacity="0.8">
        <polyline points="220.0,110.0 242.72727272727272,97.5 265.45454545454544,85.0 288.1818181818182,110.0 310.9090909090909,97.5 333.6363636363636,85.0 356.3636363636364,110.0 379.0909090909091,97.5 401.8181818181818,85.0 424.54545454545456,110.0 447.27272727272725,97.5 470.0,85.0" fill="none" stroke="#3572A5" stroke-width="2.5" stroke-linecap="round" stroke-linejoin="round">
          <animate attributeName="stroke-dasharray" from="0,1000" to="1000,0" dur="1.5s" fill="freeze"/>
        </polyline>
        <!-- Glow effect -->
        <polyline points="220.0,110.0 242.72727272727272,97.5 265.45454545454544,85.0 288.1818181818182,110.0 310.9090909090909,97.5 333.6363636363636,85.0 356.3636363636364,110.0 379.0909090909091,97.5 401.8181818181818,85.0 424.54545454545456,110.0 447.27272727272725,97.5 470.0,85.0" fill="none" stroke="#3572A5" stroke-width="5" opacity="0.3" stroke-linecap="round" stroke-linejoin="round"/>
      </g>
    </g>
  

    <!-- CombinatorialOptimization -->
    <g opacity="0.95">
      <text x="24" y="155" class="repo-name">CombinatorialOptimization</text>
      <text x="24" y="173" class="repo-desc">Task shuffles will be posted in this ...</text>
      
      <g transform="translate(24, 183)">
        <circle cx="5" cy="0" r="5" fill="#3572A5"/>
        <text x="15" y="4" class="repo-lang">Python</text>
        <text x="100" y="4" class="repo-stat">📝 12 commits</text>
      </g>
      
      <!-- EKG Chart -->
      <g opacity="0.8">
        <polyline points="220.0,190.0 242.72727272727272,177.5 265.45454545454544,165.0 288.1818181818182,190.0 310.9090909090909,177.5 333.6363636363636,165.0 356.3636363636364,190.0 379.0909090909091,177.5 401.8181818181818,165.0 424.54545454545456,190.0 447.27272727272725,177.5 470.0,165.0" fill="none" stroke="#3572A5" stroke-width="2.5" stroke-linecap="round" stroke-linejoin="round">
          <animate attributeName="stroke-dasharray" from="0,1000" to="1000,0" dur="1.5s" fill="freeze"/>
        </polyline>
        <!-- Glow effect -->
        <polyline points="220.0,190.0 242.72727272727272,177.5 265.45454545454544,165.0 288.1818181818182,190.0 310.9090909090909,177.5 333.6363636363636,165.0 356.3636363636364,190.0 379.0909090909091,177.5 401.8181818181818,165.0 424.54545454545456,190.0 447.27272727272725,177.5 470.0,165.0" fill="none" stroke="#3572A5" stroke-width="5" opacity="0.3" stroke-linecap="round" stroke-linejoin="round"/>
      </g>
    </g>
  

    <!-- DIgitalProcessing-labolatory -->
    <g opacity="0.95">
      <text x="24" y="235" class="repo-name">DIgitalProcessing-labolatory</text>
      <text x="24" y="253" class="repo-desc">Digital processing lessons.</text>
      
      <g transform="translate(24, 263)">
        <circle cx="5" cy="0" r="5" fill="#1F6FEB"/>
        <text x="15" y="4" class="repo-lang">Jupyter Notebook</text>
        <text x="100" y="4" class="repo-stat">📝 12 commits</text>
      </g>
      
      <!-- EKG Chart -->
      <g opacity="0.8">
        <polyline points="220.0,270.0 242.72727272727272,270.0 265.45454545454544,270.0 288.1818181818182,270.0 310.9090909090909,270.0 333.6363636363636,270.0 356.3636363636364,270.0 379.0909090909091,270.0 401.8181818181818,270.0 424.54545454545456,270.0 447.27272727272725,270.0 470.0,270.0" fill="none" stroke="#1F6FEB" stroke-width="2.5" stroke-linecap="round" stroke-linejoin="round">
          <animate attributeName="stroke-dasharray" from="0,1000" to="1000,0" dur="1.5s" fill="freeze"/>
        </polyline>
        <!-- Glow effect -->
        <polyline points="220.0,270.0 242.72727272727272,270.0 265.45454545454544,270.0 288.1818181818182,270.0 310.9090909090909,270.0 333.6363636363636,270.0 356.3636363636364,270.0 379.0909090909091,270.0 401.8181818181818,270.0 424.54545454545456,270.0 447.27272727272725,270.0 470.0,270.0" fill="none" stroke="#1F6FEB" stroke-width="5" opacity="0.3" stroke-linecap="round" stroke-linejoin="round"/>
      </g>
    </g>
  
</svg>