<svg width="495" height="340" viewBox="0 0 495 340" xmlns="http://www.w3.org/2000/svg">
  <defs>
    <style>
      @import url('https://fonts.googleapis.com/css2?family=Inter:wght@400;500;600;700&amp;display=swap');
      
      .bg { fill: #161B22; }
      .border { fill: none; stroke: #30363D; stroke-width: 1; }
      .title { fill: #C9D1D9; font-size: 22px; font-weight: 700; font-family: 'Inter', sans-serif; }
      .repo-name { fill: #58A6FF; font-size: 16px; font-weight: 600; font-family: 'Inter', monospace; }
      .repo-desc { fill: #8B949E; font-size: 12px; font-family: 'Inter', sans-serif; }
      .repo-lang { fill: #C9D1D9; font-size: 12px; font-family: 'Inter', sans-serif; }
      .repo-stat { fill: #8B949E; font-size: 11px; font-family: 'Inter', monospace; }
    </style>
  </defs>

  <!-- Card background -->
  <rect x="0" y="0" width="495" height="340" rx="10" class="bg"/>
  <rect x="0" y="0" width="495" height="340" rx="10" class="border"/>

  <!-- Header -->
  <text x="24" y="38" class="title">🚀 My Contributions (6 months)</text>

  <!-- Repos -->
  
    <!-- NoD2 -->
    <g opacity="0.95">
      <text x="24" y="75" class="repo-name">NoD2</text>
      <text x="24" y="93" class="repo-desc">No description</text>
      
      <g transform="translate(24, 103)">
        <circle cx="5" cy="0" r="5" fill="#3572A5"/>
        <text x="15" y="4" class="repo-lang">Python</text>
        <text x="100" y="4" class="repo-stat">📝 21 commits</text>
      </g>
      
      <!-- Contribution Graph (GitHub style) -->
      <g opacity="0.9">
        <!-- Area fill with gradient -->
        <defs>
          <linearGradient id="areaGrad0" x1="0%" y1="0%" x2="0%" y2="100%">
            <stop offset="0%" style="stop-color:#3572A5;stop-opacity:0.4" />
            <stop offset="100%" style="stop-color:#3572A5;stop-opacity:0.05" />
          </linearGradient>
        </defs>
        <path d="M 225,110 L 225.0,110.0 L 234.6,110.0 L 244.2,110.0 L 253.8,110.0 L 263.4,110.0 L 273.0,110.0 L 282.6,110.0 L 292.2,110.0 L 301.8,110.0 L 311.4,110.0 L 321.0,110.0 L 330.6,110.0 L 340.2,110.0 L 349.8,110.0 L 359.4,110.0 L 369.0,102.0 L 378.6,106.0 L 388.20000000000005,102.0 L 397.79999999999995,94.0 L 407.4,110.0 L 417.0,86.0 L 426.6,110.0 L 436.2,94.0 L 445.8,102.0 L 455.4,110.0 L 465.0,110.0 L 465,110 Z" fill="url(#areaGrad0)">
          <animate attributeName="opacity" from="0" to="1" dur="0.8s" fill="freeze"/>
        </path>
        
        <!-- Line -->
        <polyline points="225.0,110.0 234.6,110.0 244.2,110.0 253.8,110.0 263.4,110.0 273.0,110.0 282.6,110.0 292.2,110.0 301.8,110.0 311.4,110.0 321.0,110.0 330.6,110.0 340.2,110.0 349.8,110.0 359.4,110.0 369.0,102.0 378.6,106.0 388.20000000000005,102.0 397.79999999999995,94.0 407.4,110.0 417.0,86.0 426.6,110.0 436.2,94.0 445.8,102.0 455.4,110.0 465.0,110.0" fill="none" stroke="#3572A5" stroke-width="2" stroke-linecap="round" stroke-linejoin="round">
          <animate attributeName="stroke-dasharray" from="0,1000" to="1000,0" dur="1.2s" fill="freeze"/>
        </polyline>
      </g>
    </g>
  

    <!-- Blockchain -->
    <g opacity="0.95">
      <text x="24" y="155" class="repo-name">Blockchain</text>
      <text x="24" y="173" class="repo-desc">No description</text>
      
      <g transform="translate(24, 183)">
        <circle cx="5" cy="0" r="5" fill="#3572A5"/>
        <text x="15" y="4" class="repo-lang">Python</text>
        <text x="100" y="4" class="repo-stat">📝 8 commits</text>
      </g>
      
      <!-- Contribution Graph (GitHub style) -->
      <g opacity="0.9">
        <!-- Area fill with gradient -->
        <defs>
          <linearGradient id="areaGrad1" x1="0%" y1="0%" x2="0%" y2="100%">
            <stop offset="0%" style="stop-color:#3572A5;stop-opacity:0.4" />
            <stop offset="100%" style="stop-color:#3572A5;stop-opacity:0.05" />
          </linearGradient>
        </defs>
        <path d="M 225,190 L 225.0,190.0 L 234.6,190.0 L 244.2,190.0 L 253.8,190.0 L 263.4,190.0 L 273.0,190.0 L 282.6,190.0 L 292.2,190.0 L 301.8,190.0 L 311.4,190.0 L 321.0,190.0 L 330.6,190.0 L 340.2,190.0 L 349.8,190.0 L 359.4,190.0 L 369.0,190.0 L 378.6,190.0 L 388.20000000000005,190.0 L 397.79999999999995,190.0 L 407.4,186.0 L 417.0,190.0 L 426.6,190.0 L 436.2,190.0 L 445.8,186.0 L 455.4,190.0 L 465.0,166.0 L 465,190 Z" fill="url(#areaGrad1)">
          <animate attributeName="opacity" from="0" to="1" dur="0.8s" fill="freeze"/>
        </path>
        
        <!-- Line -->
        <polyline points="225.0,190.0 234.6,190.0 244.2,190.0 253.8,190.0 263.4,190.0 273.0,190.0 282.6,190.0 292.2,190.0 301.8,190.0 311.4,190.0 321.0,190.0 330.6,190.0 340.2,190.0 349.8,190.0 359.4,190.0 369.0,190.0 378.6,190.0 388.20000000000005,190.0 397.79999999999995,190.0 407.4,186.0 417.0,190.0 426.6,190.0 436.2,190.0 445.8,186.0 455.4,190.0 465.0,166.0" fill="none" stroke="#3572A5" stroke-width="2" stroke-linecap="round" stroke-linejoin="round">
          <animate attributeName="stroke-dasharray" from="0,1000" to="1000,0" dur="1.2s" fill="freeze"/>
        </polyline>
      </g>
    </g>
  

    <!-- IRHAS -->
    <g opacity="0.95">
      <text x="24" y="235" class="repo-name">IRHAS</text>
      <text x="24" y="253" class="repo-desc">Intelligent road hazard analysis system</text>
      
      <g transform="translate(24, 263)">
        <circle cx="5" cy="0" r="5" fill="#1F6FEB"/>
        <text x="15" y="4" class="repo-lang">None</text>
        <text x="100" y="4" class="repo-stat">📝 5 commits</text>
      </g>
      
      <!-- Contribution Graph (GitHub style) -->
      <g opacity="0.9">
        <!-- Area fill with gradient -->
        <defs>
          <linearGradient id="areaGrad2" x1="0%" y1="0%" x2="0%" y2="100%">
            <stop offset="0%" style="stop-color:#1F6FEB;stop-opacity:0.4" />
            <stop offset="100%" style="stop-color:#1F6FEB;stop-opacity:0.05" />
          </linearGradient>
        </defs>
        <path d="M 225,270 L 225.0,270.0 L 234.6,270.0 L 244.2,270.0 L 253.8,270.0 L 263.4,270.0 L 273.0,270.0 L 282.6,270.0 L 292.2,270.0 L 301.8,270.0 L 311.4,270.0 L 321.0,270.0 L 330.6,270.0 L 340.2,270.0 L 349.8,270.0 L 359.4,270.0 L 369.0,270.0 L 378.6,270.0 L 388.20000000000005,270.0 L 397.79999999999995,270.0 L 407.4,264.0 L 417.0,270.0 L 426.6,270.0 L 436.2,270.0 L 445.8,270.0 L 455.4,270.0 L 465.0,246.0 L 465,270 Z" fill="url(#areaGrad2)">
          <animate attributeName="opacity" from="0" to="1" dur="0.8s" fill="freeze"/>
        </path>
        
        <!-- Line -->
        <polyline points="225.0,270.0 234.6,270.0 244.2,270.0 253.8,270.0 263.4,270.0 273.0,270.0 282.6,270.0 292.2,270.0 301.8,270.0 311.4,270.0 321.0,270.0 330.6,270.0 340.2,270.0 349.8,270.0 359.4,270.0 369.0,270.0 378.6,270.0 388.20000000000005,270.0 397.79999999999995,270.0 407.4,264.0 417.0,270.0 426.6,270.0 436.2,270.0 445.8,270.0 455.4,270.0 465.0,246.0" fill="none" stroke="#1F6FEB" stroke-width="2" stroke-linecap="round" stroke-linejoin="round">
          <animate attributeName="stroke-dasharray" from="0,1000" to="1000,0" dur="1.2s" fill="freeze"/>
        </polyline>
      </g>
    </g>
  
</svg>