<svg width="480" height="200" viewBox="0 0 480 200" xmlns="http://www.w3.org/2000/svg">
  <defs>
    <style>
      .bg { fill: #0D1117; }
      .border { fill: none; stroke: #30363D; stroke-width: 1.5; }
      .title { fill: #58A6FF; font-size: 20px; font-weight: 700; font-family: 'Segoe UI', sans-serif; }
      .day-label { fill: #6E7681; font-size: 12px; font-weight: 500; font-family: 'Monaco', monospace; text-anchor: middle; }
      .count { fill: #58A6FF; font-size: 11px; font-weight: 600; font-family: 'Monaco', monospace; text-anchor: middle; }
    </style>
  </defs>

  <!-- Card background -->
  <rect x="0" y="0" width="480" height="200" rx="12" class="bg"/>
  <rect x="0" y="0" width="480" height="200" rx="12" class="border"/>

  <!-- Header -->
  <text x="20" y="35" class="title">📅 Weekly Activity</text>

  <!-- Activity bars -->
  
    <!-- Mon -->
    <text x="45" y="165" class="day-label">Mon</text>
    <rect x="30" y="140.0" width="40" height="0.0" rx="4" 
          fill="#161B22" opacity="0.3"/>
    <text x="38" y="132.0" class="count">0</text>
  

    <!-- Tue -->
    <text x="105" y="165" class="day-label">Tue</text>
    <rect x="90" y="60.0" width="40" height="80.0" rx="4" 
          fill="#1F6FEB" opacity="1.0"/>
    <text x="98" y="52.0" class="count">10</text>
  

    <!-- Wed -->
    <text x="165" y="165" class="day-label">Wed</text>
    <rect x="150" y="68.0" width="40" height="72.0" rx="4" 
          fill="#1F6FEB" opacity="0.9299999999999999"/>
    <text x="158" y="60.0" class="count">9</text>
  

    <!-- Thu -->
    <text x="225" y="165" class="day-label">Thu</text>
    <rect x="210" y="140.0" width="40" height="0.0" rx="4" 
          fill="#161B22" opacity="0.3"/>
    <text x="218" y="132.0" class="count">0</text>
  

    <!-- Fri -->
    <text x="285" y="165" class="day-label">Fri</text>
    <rect x="270" y="140.0" width="40" height="0.0" rx="4" 
          fill="#161B22" opacity="0.3"/>
    <text x="278" y="132.0" class="count">0</text>
  

    <!-- Sat -->
    <text x="345" y="165" class="day-label">Sat</text>
    <rect x="330" y="140.0" width="40" height="0.0" rx="4" 
          fill="#161B22" opacity="0.3"/>
    <text x="338" y="132.0" class="count">0</text>
  

    <!-- Sun -->
    <text x="405" y="165" class="day-label">Sun</text>
    <rect x="390" y="140.0" width="40" height="0.0" rx="4" 
          fill="#161B22" opacity="0.3"/>
    <text x="398" y="132.0" class="count">0</text>
  
</svg>